<?xml version="1.0" encoding="utf-8"?>
<!-- Svg Vector Icons : http://www.onlinewebfonts.com/icon -->
<!DOCTYPE svg PUBLIC "-//W3C//DTD SVG 1.1//EN" "http://www.w3.org/Graphics/SVG/1.1/DTD/svg11.dtd">
<svg version="1.1" xmlns="http://www.w3.org/2000/svg" xmlns:xlink="http://www.w3.org/1999/xlink" x="0px" y="0px" viewBox="0 0 1000 1000" enable-background="new 0 0 1000 1000" xml:space="preserve">
<metadata> Svg Vector Icons : http://www.onlinewebfonts.com/icon </metadata>
<g><g transform="translate(0.000000,512.000000) scale(0.100000,-0.100000)"><path d="M2521.5,3589.2c-1263.3-782.8-2325.5-1448.9-2360-1479.5c-76.6-70.8-82.3-155-13.4-223.9c38.3-40.2,65.1-47.9,162.7-47.9h114.8v-269.9c0-155,9.6-285.2,21.1-308.2c26.8-49.8,130.1-91.9,227.8-91.9H751v-266c0-235.4,3.8-269.9,38.3-313.9c21.1-24.9,59.3-53.6,86.1-59.3l47.9-11.5V-700.2v-1215.4l-57.4-21.1c-95.7-32.5-114.8-95.7-114.8-388.5v-258.4H647.6c-216.3,0-222-13.4-222-555.1v-421.1h-95.7c-118.7,0-183.7-28.7-208.6-93.8c-15.3-32.5-19.1-233.5-17.2-585.7l5.7-535.9h4890.3h4890.3l5.8,551.2l3.8,551.2l-55.5,57.4c-49.8,47.9-70.8,55.5-162.7,55.5h-107.2v421.1c0,541.7-5.7,555.1-222,555.1h-103.4v258.4c0,292.8-19.1,356-114.8,388.5l-57.4,21.1v1215.4V517.2l47.9,11.5c26.8,5.7,65.1,34.5,86.1,59.3c34.5,44,38.3,78.5,38.3,313.9v266h76.6c97.6,0,201,42.1,227.8,91.9c11.5,23,21,153.1,21,308.2v269.9h114.8c97.6,0,124.4,7.7,162.7,47.9c61.3,59.3,61.3,145.5,5.8,208.6c-24.9,24.9-1087.2,692.9-2361.9,1483.4L5178.1,5015.1h-179.9h-179.9L2521.5,3589.2z M7080.7,3451.3l2057.6-1278.6l-2069.1-5.7c-1138.8-1.9-2999.3-1.9-4138.1,0L862,2172.8l2053.7,1276.7C4046.9,4151.9,4982.9,4726.1,4996.3,4728C5009.7,4728,5947.5,4153.8,7080.7,3451.3z M9249.2,1665.6v-153.1H5000.1H751v153.1v153.1h4249.1h4249.1V1665.6z M2052.5,1014.8V861.7h-488.1h-488.1v153.1v153.1h488.1h488.1V1014.8z M4177.1,919.1c0-281.4,19.1-342.6,114.8-382.8l57.4-23V-709.7c0-1152.2-1.9-1223.1-32.5-1223.1c-44-1.9-88-36.4-116.7-90c-15.3-24.9-23-139.7-23-300.5v-260.3l-893.9,3.8l-895.8,5.7l-5.7,277.5c-3.8,252.6-7.7,279.4-45.9,319.6c-23,24.9-57.4,44-76.6,44c-32.5,0-34.4,51.7-34.4,1223.1V513.3l57.4,23c32.5,13.4,67,40.2,76.6,59.3c11.5,19.1,19.1,155,19.1,302.4v269.9h899.6h899.6V919.1z M5497.8,1014.8V861.7h-497.6h-497.6v153.1v153.1h497.6h497.6V1014.8z M7622.3,898c0-147.4,7.7-283.3,19.1-302.4c9.6-19.1,44-45.9,76.6-59.3l57.4-23V-709.7c0-1171.4-1.9-1223.1-34.4-1223.1c-19.1,0-53.6-19.1-76.6-44c-38.3-40.2-42.1-67-45.9-319.6l-5.8-277.5l-893.8-5.7l-893.9-3.8l-5.7,275.6c-5.8,262.2-7.7,279.4-51.7,325.4c-26.8,26.8-63.2,49.7-82.3,49.7c-32.5,0-34.5,51.7-34.5,1223.1V513.3l57.4,23c95.7,40.2,114.8,101.4,114.8,382.8v248.8h899.6h899.6V898z M8923.8,1014.8V861.7h-488.1h-488.1v153.1v153.1h488.1h488.1V1014.8z M1899.4-698.2v-1215.4H1574h-325.4v1215.4V517.2H1574h325.4V-698.2z M5325.5-698.2v-1215.4h-325.4h-325.4v1215.4V517.2h325.4h325.4V-698.2z M8751.6-698.2v-1215.4h-325.4h-325.4v1215.4V517.2h325.4h325.4V-698.2z M2052.5-2420.9v-162.7h-488.1h-488.1v162.7v162.7h488.1h488.1V-2420.9z M5493.9-2415.1l-5.8-158.9h-488.1H4512l-5.7,158.9l-5.7,156.9h499.6h499.6L5493.9-2415.1z M8923.8-2420.9v-162.7h-488.1h-488.1v162.7v162.7h488.1h488.1V-2420.9z M9249.2-3234.3v-325.4H5000.1H751v325.4v325.4h4249.1h4249.1V-3234.3z M9574.6-4210.5v-325.4H5000.1H425.6v325.4v325.4h4574.5h4574.5V-4210.5z"/><path d="M4929.3,4259.1c-45.9-19.1-67-45.9-84.2-103.4c-15.3-53.6-38.3-82.3-76.6-99.5c-70.8-28.7-183.8-153.1-223.9-245c-36.4-88-38.3-279.4,0-367.5c68.9-156.9,266-304.3,411.5-304.3c95.7,0,158.9-32.5,185.7-97.6c32.5-76.6,19.1-143.5-42.1-189.5c-101.5-82.3-239.3-21.1-262.2,114.8c-17.2,101.4-61.3,151.2-145.5,164.6c-55.5,9.6-78.5,1.9-124.4-36.4c-45.9-40.2-55.5-61.3-53.6-135.9c1.9-135.9,55.5-248.8,164.6-346.4c53.6-47.9,107.2-86.1,118.7-86.1c13.4,0,34.5-32.5,45.9-74.6c28.7-93.8,67-126.3,157-126.3c90,0,128.2,32.5,157,126.3c11.5,42.1,32.5,74.6,45.9,74.6c45.9,0,214.4,172.3,246.9,252.7c47.9,116.7,44,289-9.6,403.9c-74.6,157-264.1,281.4-432.6,281.4c-151.2,0-225.9,185.7-112.9,281.4c107.2,91.9,246.9,30.6,269.9-118.7c21.1-151.2,160.8-210.5,269.9-116.8c45.9,40.2,53.6,59.3,51.7,139.7c-1.9,51.7-17.2,124.4-32.5,162.7c-36.4,88-151.2,214.4-222,243.1c-38.3,17.2-61.3,45.9-76.6,99.5c-19.1,59.3-38.3,84.2-88,105.3C4990.6,4291.6,5005.9,4293.5,4929.3,4259.1z"/></g></g>
</svg>